<svg width="237" height="60" viewBox="0 0 237 60" fill="none" xmlns="http://www.w3.org/2000/svg">
<g clip-path="url(#clip0_4002_77)">
<path d="M93.7326 36.9838C93.3355 37.6165 92.7788 38.1697 92.1435 38.6444C91.5073 39.1976 90.872 39.5938 90.077 39.9891C89.3614 40.3844 88.4879 40.7003 87.6135 40.9376C86.739 41.175 85.7852 41.2535 84.9108 41.2535C83.3217 41.2535 81.8914 41.0171 80.619 40.4629C79.3485 39.9097 78.2349 39.1976 77.2811 38.2491C76.3155 37.2947 75.5814 36.1317 75.1352 34.8494C74.6588 33.5841 74.3411 32.0815 74.3411 30.5788C74.3411 29.0771 74.5793 27.6538 75.1352 26.31C75.6117 24.9653 76.4076 23.8579 77.2811 22.8309C78.2407 21.8644 79.3729 21.0862 80.619 20.5368C81.8914 19.9835 83.4011 19.6676 84.9902 19.6676C86.8979 19.6676 88.5673 19.9835 89.9976 20.6956C91.4279 21.4076 92.6199 22.4356 93.5738 23.7L90.3946 26.7838C89.7593 25.9138 89.0438 25.2026 88.1693 24.7279C87.2958 24.1747 86.342 23.9374 85.1499 23.9374C84.1961 23.9374 83.4011 24.0962 82.6061 24.4121C81.8737 24.741 81.2224 25.2269 80.6985 25.8353C80.222 26.4679 79.8249 27.1006 79.5073 27.8912C79.1896 28.6818 79.1093 29.5518 79.1093 30.4209C79.1093 31.2909 79.2682 32.1609 79.5064 32.9515C79.8241 33.7421 80.222 34.3747 80.6993 35.0074C81.2027 35.5837 81.8265 36.0425 82.5267 36.3512C83.2414 36.6679 84.0373 36.8259 84.9902 36.8259C85.7058 36.8259 86.342 36.7465 86.8979 36.5885C87.4003 36.4413 87.8812 36.2286 88.3282 35.9559C88.7322 35.7109 89.1057 35.4189 89.4408 35.0859C89.7593 34.77 90.077 34.3747 90.3946 34.0588L93.7326 36.9838ZM96.1961 20.22H114.317V40.7779H109.628V24.4897H100.886V40.8574H96.1961V20.22ZM124.251 20.22H129.418L136.968 40.7779H131.881L130.292 36.0335H122.98L121.39 40.7779H116.463L124.251 20.22ZM129.179 32.4759L126.636 24.7271L124.093 32.4759H129.179ZM156.916 36.9829C156.518 37.6156 155.962 38.1688 155.326 38.6435C154.691 39.1968 154.055 39.5921 153.26 39.9874C152.545 40.3835 151.671 40.6994 150.796 40.9368C149.922 41.1741 148.968 41.2526 148.094 41.2526C146.504 41.2526 145.074 41.0153 143.803 40.4621C142.531 39.9088 141.418 39.1968 140.465 38.2482C139.499 37.294 138.765 36.1309 138.319 34.8485C137.841 33.5832 137.524 32.0806 137.524 30.5779C137.524 29.0762 137.762 27.6529 138.319 26.3091C138.795 24.9644 139.59 23.8571 140.465 22.83C141.424 21.8635 142.556 21.0854 143.803 20.5359C145.074 19.9826 146.584 19.6668 148.174 19.6668C150.081 19.6668 151.75 19.9826 153.18 20.6947C154.611 21.4059 155.803 22.4338 156.757 23.6991L153.578 26.7829C152.942 25.9138 152.226 25.2018 151.353 24.7271C150.478 24.1738 149.525 23.9365 148.333 23.9365C147.379 23.9365 146.584 24.0953 145.79 24.4112C145.057 24.74 144.406 25.2259 143.882 25.8344C143.405 26.4671 143.008 27.0997 142.69 27.8903C142.371 28.6809 142.292 29.5509 142.292 30.42C142.292 31.29 142.452 32.16 142.69 32.9506C143.008 33.7412 143.405 34.3738 143.882 35.0065C144.385 35.583 145.01 36.0418 145.71 36.3503C146.425 36.6671 147.22 36.825 148.174 36.825C148.888 36.825 149.525 36.7456 150.081 36.5876C150.637 36.4297 151.114 36.1924 151.512 35.955C151.915 35.7101 152.289 35.4184 152.624 35.0859C152.942 34.7691 153.26 34.3738 153.578 34.0579L156.916 36.9829ZM159.38 20.22H173.526V24.2524H164.068V28.2847H171.381V32.2376H164.068V36.6662H174.162V40.7779H159.38V20.22ZM177.341 20.22H182.03V28.1259H191.011V20.22H195.7V40.7779H191.011V32.3171H182.03V40.7779H177.341V20.22ZM217.635 40.7779H213.026V26.9409L203.886 40.7779H199.674V20.2191H204.283V33.8206L213.264 20.2209H217.715V40.7788L217.635 40.7779ZM221.689 20.22H235.835V24.2524H226.378V28.2847H233.69V32.2376H226.378V36.6662H236.471V40.7779H221.689V20.22ZM83.9826 54.5824L81.1599 47.7591H79.5885L76.7649 54.5832H78.1441L78.6717 53.2738H82.0758L82.6043 54.5832L83.9826 54.5824ZM81.7202 52.2203H79.0273L80.3737 48.7721L81.7202 52.2203ZM86.0288 54.5824V48.8135H89.6914V47.7591H84.7679V54.5832L86.0288 54.5824ZM95.7408 54.5824V53.5297H92.0773V51.6371H95.6649V50.5835H92.0773V48.8135H95.7408V47.7591H90.8173V54.5832L95.7408 54.5824ZM103.294 54.5824V47.7591H102.034V50.5526H98.2952V47.7591H97.0352V54.5832H98.2952V51.6062H102.034V54.5832L103.294 54.5824ZM107.794 54.5824V48.8135H109.97V47.7591H104.357V48.8135H106.533V54.5832L107.794 54.5824ZM114.158 54.7059C115.666 54.7059 116.549 53.9894 117.099 53.1706L116.022 52.65C115.677 53.2226 114.988 53.6418 114.158 53.6418C112.79 53.6418 111.734 52.6094 111.734 51.1765C111.734 49.7444 112.79 48.7112 114.158 48.7112C114.988 48.7112 115.677 49.1409 116.022 49.7029L117.099 49.1824C116.56 48.3635 115.666 47.6471 114.158 47.6471C112.089 47.6471 110.441 49.0791 110.441 51.1765C110.441 53.2738 112.089 54.7059 114.158 54.7059ZM121.081 54.5824V48.8135H123.257V47.7591H117.644V48.8135H119.821V54.5832L121.081 54.5824ZM127.956 54.5824C129.303 54.5824 130.046 53.7953 130.046 52.7418C130.046 51.9035 129.421 51.1765 128.656 51.0644C129.324 50.9312 129.906 50.3585 129.906 49.4991C129.906 48.5374 129.173 47.76 127.859 47.76H124.326V54.5832L127.956 54.5824ZM125.586 48.8135H127.601C128.247 48.8135 128.613 49.1921 128.613 49.7029C128.613 50.2147 128.247 50.5835 127.601 50.5835H125.586V48.8135ZM125.586 51.6371H127.655C128.376 51.6371 128.753 52.0668 128.753 52.5776C128.753 53.1715 128.344 53.5297 127.655 53.5297H125.586V51.6371ZM130.988 51.1765C130.988 53.2121 132.507 54.7059 134.661 54.7059C136.816 54.7059 138.336 53.2121 138.336 51.1765C138.336 49.1409 136.816 47.6471 134.661 47.6471C132.507 47.6471 130.988 49.1409 130.988 51.1765ZM137.043 51.1765C137.043 52.5776 136.105 53.6418 134.661 53.6418C133.207 53.6418 132.281 52.5776 132.281 51.1765C132.281 49.7647 133.207 48.7112 134.661 48.7112C136.105 48.7112 137.043 49.7647 137.043 51.1765ZM148.575 54.5824V47.7591H142.316V54.5832H143.577V48.8126H147.314V54.5832L148.575 54.5824ZM149.778 51.1765C149.778 53.2121 151.297 54.7059 153.452 54.7059C155.606 54.7059 157.125 53.2121 157.125 51.1765C157.125 49.1409 155.606 47.6471 153.452 47.6471C151.297 47.6471 149.778 49.1409 149.778 51.1765ZM155.833 51.1765C155.833 52.5776 154.896 53.6418 153.452 53.6418C151.997 53.6418 151.071 52.5776 151.071 51.1765C151.071 49.7647 151.997 48.7112 153.452 48.7112C154.896 48.7112 155.833 49.7647 155.833 51.1765ZM161.106 47.7591V54.5832H164.263C165.771 54.5832 166.611 53.6012 166.611 52.4453C166.611 51.2894 165.76 50.3065 164.263 50.3065H162.366V48.8135H166.029V47.7591H161.106ZM164.09 51.3609C164.801 51.3609 165.318 51.7906 165.318 52.4453C165.318 53.1 164.801 53.5297 164.09 53.5297H162.366V51.3609H164.09ZM174.124 54.5824L171.301 47.7591H169.729L166.906 54.5832H168.285L168.813 53.2738H172.217L172.745 54.5832L174.124 54.5824ZM171.861 52.2203H169.168L170.515 48.7721L171.861 52.2203ZM181.168 54.5824V47.7591H179.908V50.5526H176.169V47.7591H174.909V54.5832H176.169V51.6062H179.908V54.5832L181.168 54.5824ZM188.544 54.5824L185.409 50.9824L188.329 47.7591H186.766L183.955 51.0132V47.7591H182.694V54.5832H183.955V52.4038L184.58 51.7085L186.993 54.5832L188.544 54.5824ZM190.646 54.5824V52.0359H192.542C194.039 52.0359 194.89 51.0538 194.89 49.8979C194.89 48.7421 194.05 47.7591 192.542 47.7591H189.385V54.5832L190.646 54.5824ZM193.597 49.8971C193.597 50.5526 193.08 50.9824 192.369 50.9824H190.646V48.8135H192.369C193.08 48.8135 193.597 49.2424 193.597 49.8971ZM195.616 51.1765C195.616 53.2121 197.136 54.7059 199.29 54.7059C201.445 54.7059 202.963 53.2121 202.963 51.1765C202.963 49.1409 201.445 47.6471 199.29 47.6471C197.136 47.6471 195.616 49.1409 195.616 51.1765ZM201.671 51.1765C201.671 52.5776 200.734 53.6418 199.29 53.6418C197.836 53.6418 196.91 52.5776 196.91 51.1765C196.91 49.7647 197.836 48.7112 199.29 48.7112C200.734 48.7112 201.671 49.7647 201.671 51.1765ZM206.878 54.5824V48.8135H209.053V47.7591H203.441V48.8135H205.617V54.5832L206.878 54.5824ZM213.241 54.7059C214.75 54.7059 215.633 53.9894 216.183 53.1706L215.106 52.65C214.761 53.2226 214.071 53.6418 213.241 53.6418C211.873 53.6418 210.817 52.6094 210.817 51.1765C210.817 49.7444 211.873 48.7112 213.241 48.7112C214.071 48.7112 214.761 49.1409 215.106 49.7029L216.183 49.1824C215.644 48.3635 214.75 47.6471 213.241 47.6471C211.173 47.6471 209.525 49.0791 209.525 51.1765C209.525 53.2738 211.173 54.7059 213.241 54.7059ZM220.165 54.5824V48.8135H222.341V47.7591H216.728V48.8135H218.904V54.5832L220.165 54.5824ZM227.039 54.5824C228.387 54.5824 229.13 53.7953 229.13 52.7418C229.13 51.9035 228.505 51.1765 227.74 51.0644C228.408 50.9312 228.989 50.3585 228.989 49.4991C228.989 48.5374 228.257 47.76 226.942 47.76H223.409V54.5832L227.039 54.5824ZM224.669 48.8135H226.684C227.331 48.8135 227.697 49.1921 227.697 49.7029C227.697 50.2147 227.331 50.5835 226.684 50.5835H224.669V48.8135ZM224.669 51.6371H226.738C227.459 51.6371 227.837 52.0668 227.837 52.5776C227.837 53.1715 227.428 53.5297 226.738 53.5297H224.669V51.6371ZM233.239 51.7288L231.084 47.76H229.641L232.571 52.8335C232.237 53.4168 231.957 53.6418 231.418 53.6418C231.224 53.6418 231.041 53.6109 230.901 53.5394L230.578 54.5524C230.826 54.6441 231.181 54.7059 231.472 54.7059C232.701 54.7059 233.271 54.1429 233.691 53.3047L236.471 47.7591H235.048L233.239 51.7288ZM55.1208 30.4562C56.1509 32.3217 56.6032 34.4513 56.4205 36.5744C55.6414 44.8474 44.9005 50.6215 32.4285 49.4144C19.9555 48.2082 10.4279 40.6253 11.2079 32.3524C11.814 25.6306 19.089 20.5465 28.6167 19.5124C13.892 18.9088 1.5064 25.545 0.12022 35.5412C-1.35155 46.3985 10.862 56.9118 27.3179 59.1529C43.7746 61.3941 58.412 54.4138 59.8855 43.5556C60.4917 38.9021 58.6723 34.4215 55.1208 30.4571V30.4562Z" fill="#142E51"/>
<path d="M51.1366 0.554108L19.9551 38.6435L53.9945 29.767L47.7589 24.8559L36.9324 27.7853L49.318 12.705L51.1366 0.554108Z" fill="#91C75D"/>
</g>
<defs>
<clipPath id="clip0_4002_77">
<rect width="236.471" height="60" fill="white"/>
</clipPath>
</defs>
</svg>
