<svg id="svg-check--fill" viewBox="0 0 40 40" fill="none" xmlns="http://www.w3.org/2000/svg">
<rect width="40" height="40" rx="20" fill="#91C75D"/>
<path d="M25.1436 17.1062L24.2036 16.1863C24.0769 16.0623 23.9185 16.0002 23.7389 16.0002C23.5594 16.0002 23.401 16.0623 23.2743 16.1863L18.7541 20.6101L16.737 18.6256C16.6102 18.5015 16.4518 18.4395 16.2723 18.4395C16.0927 18.4395 15.9343 18.5015 15.8076 18.6256L14.8677 19.5455C14.7304 19.6695 14.667 19.8245 14.667 20.0002C14.667 20.176 14.7304 20.331 14.8571 20.455L17.3495 22.8943L18.2894 23.8142C18.4162 23.9382 18.5746 24.0002 18.7541 24.0002C18.9337 24.0002 19.0921 23.9382 19.2188 23.8142L20.1587 22.8943L25.1436 18.0157C25.2703 17.8917 25.3337 17.7367 25.3337 17.561C25.3337 17.3853 25.2703 17.2302 25.1436 17.1062Z" fill="white"/>
</svg>
