<svg id="svg-plus-fill" viewBox="0 0 40 40" fill="none" xmlns="http://www.w3.org/2000/svg">
<rect width="40" height="40" rx="20" fill="#91C75D"/>
<path d="M25.7143 21.0685L21.0687 21.0685L21.0687 25.7141C21.071 25.8465 21.0469 25.9781 20.9978 26.1011C20.9487 26.2241 20.8756 26.3361 20.7828 26.4306C20.6899 26.5251 20.5792 26.6001 20.457 26.6513C20.3349 26.7026 20.2037 26.7289 20.0713 26.7289C19.9388 26.7289 19.8077 26.7026 19.6855 26.6513C19.5634 26.6001 19.4527 26.5251 19.3598 26.4306C19.267 26.3361 19.1939 26.2241 19.1448 26.1011C19.0957 25.9781 19.0716 25.8465 19.0739 25.7141L19.0739 21.0685L14.4283 21.0685C14.2959 21.0708 14.1643 21.0467 14.0413 20.9976C13.9182 20.9485 13.8062 20.8754 13.7118 20.7825C13.6173 20.6897 13.5422 20.579 13.491 20.4568C13.4398 20.3347 13.4134 20.2035 13.4134 20.0711C13.4134 19.9386 13.4398 19.8075 13.491 19.6853C13.5422 19.5632 13.6173 19.4524 13.7118 19.3596C13.8062 19.2667 13.9182 19.1936 14.0413 19.1446C14.1643 19.0955 14.2959 19.0714 14.4283 19.0737L19.0739 19.0737L19.0739 14.4281C19.0716 14.2956 19.0957 14.1641 19.1448 14.041C19.1939 13.918 19.267 13.806 19.3598 13.7115C19.4527 13.6171 19.5634 13.542 19.6855 13.4908C19.8077 13.4396 19.9388 13.4132 20.0713 13.4132C20.2037 13.4132 20.3349 13.4396 20.457 13.4908C20.5792 13.542 20.6899 13.6171 20.7828 13.7115C20.8756 13.806 20.9487 13.918 20.9978 14.041C21.0469 14.1641 21.071 14.2956 21.0687 14.4281L21.0687 19.0737L25.7143 19.0737C25.8467 19.0714 25.9783 19.0955 26.1013 19.1446C26.2243 19.1936 26.3364 19.2667 26.4308 19.3596C26.5253 19.4524 26.6003 19.5632 26.6516 19.6853C26.7028 19.8075 26.7292 19.9386 26.7292 20.0711C26.7292 20.2035 26.7028 20.3347 26.6516 20.4568C26.6003 20.579 26.5253 20.6897 26.4308 20.7825C26.3364 20.8754 26.2243 20.9485 26.1013 20.9976C25.9783 21.0467 25.8467 21.0708 25.7143 21.0685Z" fill="white"/>
</svg>
