<svg id="svg-telegram-fill" viewBox="0 0 30 30" fill="none" xmlns="http://www.w3.org/2000/svg">
<g clip-path="url(#clip0_2032_614)">
<path d="M15 30C23.2843 30 30 23.2843 30 15C30 6.71575 23.2843 0 15 0C6.71575 0 0 6.71575 0 15C0 23.2843 6.71575 30 15 30Z" fill="#142E51"/>
<path d="M12.5203 19.4336L12.707 16.6136L17.827 12.0003C18.0536 11.7936 17.7803 11.6936 17.4803 11.8736L11.1603 15.867L8.42698 15.0003C7.84031 14.8336 7.83365 14.427 8.56031 14.1336L19.207 10.027C19.6936 9.80697 20.1603 10.147 19.9736 10.8936L18.1603 19.4336C18.0336 20.0403 17.667 20.187 17.1603 19.907L14.4003 17.867L13.0736 19.1536C12.9203 19.307 12.7936 19.4336 12.5203 19.4336Z" fill="white"/>
</g>
<defs>
<clipPath id="clip0_2032_614">
<rect width="30" height="30" fill="white"/>
</clipPath>
</defs>
</svg>
