<svg id="svg-x" viewBox="0 0 14 14" fill="none" xmlns="http://www.w3.org/2000/svg">
<path d="M13.5736 2.4011L8.97475 7L13.5736 11.5989C13.707 11.7277 13.8134 11.8818 13.8866 12.0522C13.9598 12.2226 13.9983 12.4059 13.9999 12.5913C14.0016 12.7767 13.9662 12.9606 13.896 13.1323C13.8258 13.3039 13.7221 13.4598 13.591 13.591C13.4598 13.7221 13.3039 13.8258 13.1323 13.896C12.9606 13.9662 12.7767 14.0016 12.5913 13.9999C12.4059 13.9983 12.2226 13.9598 12.0522 13.8866C11.8818 13.8134 11.7277 13.707 11.5989 13.5736L7 8.97475L2.4011 13.5736C2.27227 13.707 2.11817 13.8134 1.94778 13.8866C1.7774 13.9598 1.59414 13.9983 1.4087 13.9999C1.22327 14.0016 1.03937 13.9662 0.867735 13.896C0.696102 13.8258 0.540172 13.7221 0.409045 13.591C0.277917 13.4598 0.174218 13.3039 0.103997 13.1323C0.0337766 12.9606 -0.00155865 12.7767 5.27303e-05 12.5913C0.00166411 12.4059 0.0401902 12.2226 0.113383 12.0522C0.186576 11.8818 0.292969 11.7277 0.426356 11.5989L5.02525 7L0.426356 2.4011C0.292969 2.27227 0.186576 2.11817 0.113383 1.94778C0.0401902 1.7774 0.00166411 1.59414 5.27303e-05 1.4087C-0.00155865 1.22327 0.0337766 1.03937 0.103997 0.867735C0.174218 0.696102 0.277917 0.540172 0.409045 0.409045C0.540172 0.277917 0.696102 0.174218 0.867735 0.103997C1.03937 0.0337766 1.22327 -0.00155865 1.4087 5.27303e-05C1.59414 0.00166411 1.7774 0.0401902 1.94778 0.113383C2.11817 0.186576 2.27227 0.292969 2.4011 0.426356L7 5.02525L11.5989 0.426356C11.7277 0.292969 11.8818 0.186576 12.0522 0.113383C12.2226 0.0401902 12.4059 0.00166411 12.5913 5.27303e-05C12.7767 -0.00155865 12.9606 0.0337766 13.1323 0.103997C13.3039 0.174218 13.4598 0.277917 13.591 0.409045C13.7221 0.540172 13.8258 0.696102 13.896 0.867735C13.9662 1.03937 14.0016 1.22327 13.9999 1.4087C13.9983 1.59414 13.9598 1.7774 13.8866 1.94778C13.8134 2.11817 13.707 2.27227 13.5736 2.4011Z" fill="currentColor"/>
</svg>
