<svg id="svg-check" viewBox="0 0 12 12" fill="none" xmlns="http://www.w3.org/2000/svg">
<mask id="mask0_4014_107" style="mask-type:alpha" maskUnits="userSpaceOnUse" x="0" y="0" width="12" height="12">
<rect width="12" height="12" fill="#D9D9D9"/>
</mask>
<g mask="url(#mask0_4014_107)">
<path d="M9.5158 3.82946L8.8415 3.13953C8.75058 3.04651 8.63694 3 8.50814 3C8.37934 3 8.26569 3.04651 8.17477 3.13953L4.93207 6.45736L3.48498 4.96899C3.39406 4.87597 3.28041 4.82946 3.15161 4.82946C3.02282 4.82946 2.90917 4.87597 2.81825 4.96899L2.14395 5.65891C2.04546 5.75194 2 5.86822 2 6C2 6.13178 2.04546 6.24806 2.13638 6.34108L3.92441 8.17054L4.59871 8.86046C4.68963 8.95349 4.80327 9 4.93207 9C5.06087 9 5.17452 8.95349 5.26543 8.86046L5.93973 8.17054L9.5158 4.51163C9.60672 4.4186 9.65217 4.30233 9.65217 4.17054C9.65217 4.03876 9.60672 3.92248 9.5158 3.82946Z" fill="currentColor"/>
</g>
</svg>
