<svg id="svg-facebook" viewBox="0 0 30 30" fill="none" xmlns="http://www.w3.org/2000/svg">
<g clip-path="url(#clip0_2032_618)">
<path d="M15 30C23.2843 30 30 23.2843 30 15C30 6.71575 23.2843 0 15 0C6.71575 0 0 6.71575 0 15C0 23.2843 6.71575 30 15 30Z" fill="white"/>
<g clip-path="url(#clip1_2032_618)">
<path d="M30 15C30 6.71488 23.2851 0 15 0C6.71488 0 0 6.71488 0 15C0 22.4883 5.48438 28.6934 12.6562 29.8184V19.3359H8.84763V15H12.6562V11.6953C12.6562 7.9365 14.8946 5.85938 18.3223 5.85938C19.9629 5.85938 21.6797 6.15234 21.6797 6.15234V9.84375H19.7871C17.9238 9.84375 17.3438 11.001 17.3438 12.1875V15H21.5039L20.8389 19.3359H17.3438V29.8184C24.5156 28.6934 30 22.4883 30 15Z" fill="#142E51"/>
</g>
</g>
<defs>
<clipPath id="clip0_2032_618">
<rect width="30" height="30" fill="white"/>
</clipPath>
<clipPath id="clip1_2032_618">
<rect width="30" height="30" fill="white"/>
</clipPath>
</defs>
</svg>
