<svg id="svg-file" viewBox="0 0 40 40" fill="none" xmlns="http://www.w3.org/2000/svg">
<path d="M34.5202 8.44688L27.9669 2.74021C27.8935 2.67688 27.8102 2.63688 27.7235 2.60354C27.6402 2.56688 27.5502 2.54688 27.4569 2.54688H7.02352C6.10352 2.54688 5.35352 3.23688 5.35352 4.08354V35.9202C5.35352 36.7669 6.10352 37.4569 7.02352 37.4569H33.1502C34.0702 37.4569 34.8202 36.7669 34.8202 35.9202V9.00354C34.8202 8.77021 34.7002 8.56688 34.5202 8.44688ZM28.0335 4.55021L32.5535 8.48687H28.7602C28.3669 8.48687 28.0302 8.23687 28.0302 7.93687V4.55021H28.0335ZM33.1502 36.1202H7.02352C6.81685 36.1202 6.68685 36.0002 6.68685 35.9169V4.08354C6.68685 4.00021 6.82018 3.88021 7.02352 3.88021H26.7102V7.93687C26.7102 8.96687 27.6302 9.80687 28.7602 9.80687H33.4869V35.9169C33.4869 36.0002 33.3535 36.1202 33.1502 36.1202ZM29.0635 15.2469H10.9368C10.1068 15.2469 9.43352 15.9202 9.43352 16.7502V17.1969C9.43352 18.0269 10.1068 18.7002 10.9368 18.7002H29.0635C29.8935 18.7002 30.5668 18.0269 30.5668 17.1969V16.7502C30.5668 15.9202 29.8935 15.2469 29.0635 15.2469ZM29.2335 17.1969C29.2335 17.2902 29.1569 17.3669 29.0635 17.3669H10.9368C10.8435 17.3669 10.7668 17.2902 10.7668 17.1969V16.7502C10.7668 16.6569 10.8435 16.5802 10.9368 16.5802H29.0635C29.1569 16.5802 29.2335 16.6569 29.2335 16.7502V17.1969ZM29.0635 21.6069H10.9368C10.1068 21.6069 9.43352 22.2802 9.43352 23.1102V23.5569C9.43352 24.3869 10.1068 25.0602 10.9368 25.0602H29.0635C29.8935 25.0602 30.5668 24.3869 30.5668 23.5569V23.1102C30.5668 22.2802 29.8935 21.6069 29.0635 21.6069ZM29.2335 23.5569C29.2335 23.6502 29.1569 23.7269 29.0635 23.7269H10.9368C10.8435 23.7269 10.7668 23.6502 10.7668 23.5569V23.1102C10.7668 23.0169 10.8435 22.9402 10.9368 22.9402H29.0635C29.1569 22.9402 29.2335 23.0169 29.2335 23.1102V23.5569ZM23.2602 27.9669H10.8002C10.0468 27.9669 9.43352 28.5802 9.43352 29.3335V30.0535C9.43352 30.8069 10.0468 31.4202 10.8002 31.4202H23.2602C24.0135 31.4202 24.6269 30.8069 24.6269 30.0535V29.3335C24.6269 28.5802 24.0135 27.9669 23.2602 27.9669ZM23.2935 30.0535C23.2935 30.0735 23.2802 30.0869 23.2602 30.0869H10.8002C10.7802 30.0869 10.7668 30.0735 10.7668 30.0535V29.3335C10.7668 29.3135 10.7802 29.3002 10.8002 29.3002H23.2602C23.2802 29.3002 23.2935 29.3135 23.2935 29.3335V30.0535ZM10.4402 12.9202H14.6802C15.4435 12.9202 16.0668 12.2969 16.0668 11.5335V8.25354C16.0668 7.49021 15.4435 6.86688 14.6802 6.86688H10.4402C9.67685 6.86688 9.05352 7.49021 9.05352 8.25354V11.5335C9.05352 12.2969 9.67685 12.9202 10.4402 12.9202ZM10.3868 8.25354C10.3868 8.22354 10.4102 8.20021 10.4402 8.20021H14.6802C14.7102 8.20021 14.7335 8.22354 14.7335 8.25354V11.5335C14.7335 11.5635 14.7102 11.5869 14.6802 11.5869H10.4402C10.4102 11.5869 10.3868 11.5635 10.3868 11.5335V8.25354Z" fill="#142E51"/>
</svg>
