<svg id="svg-instagram" viewBox="0 0 30 30" fill="none" xmlns="http://www.w3.org/2000/svg">
<g clip-path="url(#clip0_2032_622)">
<path d="M15 30C23.2843 30 30 23.2843 30 15C30 6.71575 23.2843 0 15 0C6.71575 0 0 6.71575 0 15C0 23.2843 6.71575 30 15 30Z" fill="#91C75D"/>
<path d="M15 27C21.6274 27 27 21.6274 27 15C27 8.3726 21.6274 3 15 3C8.3726 3 3 8.3726 3 15C3 21.6274 8.3726 27 15 27Z" fill="white"/>
<g clip-path="url(#clip1_2032_622)">
<path fill-rule="evenodd" clip-rule="evenodd" d="M15 3C8.3726 3 3 8.3726 3 15C3 21.6274 8.3726 27 15 27C21.6274 27 27 21.6274 27 15C27 8.3726 21.6274 3 15 3ZM12.3617 8.63865C13.0443 8.6076 13.2625 8.6 15.0006 8.6H14.9986C16.7373 8.6 16.9546 8.6076 17.6373 8.63865C18.3186 8.66985 18.7839 8.77775 19.192 8.936C19.6133 9.09935 19.9693 9.318 20.3253 9.674C20.6814 10.0297 20.9 10.3868 21.064 10.8078C21.2213 11.2147 21.3293 11.6798 21.3613 12.3611C21.392 13.0438 21.4 13.2619 21.4 15C21.4 16.7382 21.392 16.9558 21.3613 17.6385C21.3293 18.3196 21.2213 18.7848 21.064 19.1919C20.9 19.6126 20.6814 19.9697 20.3253 20.3255C19.9697 20.6815 19.6132 20.9007 19.1924 21.0641C18.7851 21.2224 18.3196 21.3302 17.6383 21.3615C16.9556 21.3925 16.7381 21.4002 14.9998 21.4002C13.2618 21.4002 13.0438 21.3925 12.3611 21.3615C11.6799 21.3302 11.2147 21.2224 10.8075 21.0641C10.3868 20.9007 10.0297 20.6815 9.67415 20.3255C9.31825 19.9697 9.0996 19.6126 8.936 19.1917C8.77785 18.7847 8.67 18.3197 8.63865 17.6383C8.60775 16.9557 8.6 16.7382 8.6 15C8.6 13.2619 8.608 13.0437 8.63855 12.361C8.6692 11.6799 8.7772 11.2147 8.93585 10.8076C9.09985 10.3868 9.31855 10.0297 9.67455 9.674C10.0303 9.31815 10.3874 9.09945 10.8083 8.936C11.2153 8.77775 11.6803 8.66985 12.3617 8.63865Z" fill="#91C75D"/>
<path fill-rule="evenodd" clip-rule="evenodd" d="M14.4265 9.75355C14.538 9.7534 14.6579 9.75345 14.7873 9.7535L15.0007 9.75355C16.7095 9.75355 16.912 9.7597 17.5868 9.79035C18.2108 9.8189 18.5495 9.92315 18.7751 10.0108C19.0738 10.1268 19.2867 10.2655 19.5106 10.4895C19.7346 10.7135 19.8732 10.9268 19.9895 11.2255C20.0771 11.4508 20.1815 11.7895 20.2099 12.4135C20.2406 13.0882 20.2472 13.2908 20.2472 14.9988C20.2472 16.7069 20.2406 16.9095 20.2099 17.5842C20.1814 18.2082 20.0771 18.5469 19.9895 18.7722C19.8735 19.0709 19.7346 19.2836 19.5106 19.5074C19.2866 19.7314 19.0739 19.8701 18.7751 19.9861C18.5498 20.0741 18.2108 20.1781 17.5868 20.2066C16.9121 20.2373 16.7095 20.244 15.0007 20.244C13.2917 20.244 13.0892 20.2373 12.4145 20.2066C11.7905 20.1778 11.4518 20.0736 11.2261 19.986C10.9274 19.87 10.7141 19.7313 10.4901 19.5073C10.2661 19.2833 10.1274 19.0705 10.0111 18.7717C9.92351 18.5464 9.81911 18.2077 9.79071 17.5837C9.76006 16.909 9.75391 16.7063 9.75391 14.9972C9.75391 13.2882 9.76006 13.0866 9.79071 12.4119C9.81926 11.7879 9.92351 11.4492 10.0111 11.2236C10.1271 10.9249 10.2661 10.7116 10.4901 10.4876C10.7141 10.2636 10.9274 10.1249 11.2261 10.0087C11.4517 9.92065 11.7905 9.81665 12.4145 9.78795C13.0049 9.7613 13.2337 9.7533 14.4265 9.75195V9.75355ZM18.417 10.8163C17.993 10.8163 17.6489 11.1599 17.6489 11.584C17.6489 12.008 17.993 12.352 18.417 12.352C18.841 12.352 19.185 12.008 19.185 11.584C19.185 11.16 18.841 10.8163 18.417 10.8163ZM11.714 15.0003C11.714 13.1853 13.1855 11.7137 15.0005 11.7136C16.8156 11.7136 18.2868 13.1852 18.2868 15.0003C18.2868 16.8154 16.8157 18.2864 15.0007 18.2864C13.1856 18.2864 11.714 16.8154 11.714 15.0003Z" fill="#91C75D"/>
<path d="M15.0005 12.8672C16.1787 12.8672 17.1339 13.8223 17.1339 15.0005C17.1339 16.1787 16.1787 17.1339 15.0005 17.1339C13.8223 17.1339 12.8672 16.1787 12.8672 15.0005C12.8672 13.8223 13.8223 12.8672 15.0005 12.8672Z" fill="#91C75D"/>
</g>
</g>
<defs>
<clipPath id="clip0_2032_622">
<rect width="30" height="30" fill="white"/>
</clipPath>
<clipPath id="clip1_2032_622">
<rect width="24" height="24" fill="white" transform="translate(3 3)"/>
</clipPath>
</defs>
</svg>
