<svg id="svg-location-fill" viewBox="0 0 24 24" fill="none" xmlns="http://www.w3.org/2000/svg">
<circle cx="12" cy="12" r="12" fill="#91C75D"/>
<path fill-rule="evenodd" clip-rule="evenodd" d="M8.5 10.6328C8.5 8.69782 10.065 7.13281 12 7.13281C13.935 7.13281 15.5 8.69782 15.5 10.6328C15.5 12.7178 13.29 15.5928 12.385 16.6878C12.185 16.9278 11.82 16.9278 11.62 16.6878C10.71 15.5928 8.5 12.7178 8.5 10.6328ZM10.75 10.6328C10.75 11.3228 11.31 11.8828 12 11.8828C12.69 11.8828 13.25 11.3228 13.25 10.6328C13.25 9.94281 12.69 9.38281 12 9.38281C11.31 9.38281 10.75 9.94281 10.75 10.6328Z" fill="white"/>
</svg>
