<svg id="svg-phone-fill" viewBox="0 0 24 24" fill="none" xmlns="http://www.w3.org/2000/svg">
<circle cx="12" cy="12" r="12" fill="#91C75D"/>
<g clip-path="url(#clip0_4013_104)">
<path d="M15.964 14.3776L15.9242 14.2576C15.8299 13.9773 15.5208 13.685 15.2368 13.608L14.1858 13.3208C13.9007 13.2433 13.4942 13.3476 13.2856 13.5561L12.9052 13.9365C11.5228 13.5629 10.4388 12.4789 10.0658 11.0967L10.4462 10.7163C10.6547 10.5078 10.759 10.1017 10.6814 9.81672L10.3948 8.76518C10.3173 8.48067 10.0244 8.17156 9.74461 8.07829L9.62463 8.03795C9.34432 7.94468 8.94455 8.03901 8.73603 8.24753L8.16703 8.81705C8.06538 8.91817 8.00041 9.20738 8.00041 9.20844C7.98051 11.015 8.68887 12.7555 9.96674 14.0334C11.2415 15.3081 12.9755 16.0154 14.7768 16.0002C14.7862 16.0002 15.0838 15.9363 15.1854 15.8352L15.7544 15.2662C15.963 15.0577 16.0573 14.6579 15.964 14.3776Z" fill="#F9F9F9"/>
</g>
<defs>
<clipPath id="clip0_4013_104">
<rect width="8" height="8" fill="white" transform="translate(8 8)"/>
</clipPath>
</defs>
</svg>
