<svg id="svg-swiper-prev" viewBox="0 0 16 16" fill="none" xmlns="http://www.w3.org/2000/svg">
<g clip-path="url(#clip0_2032_414)">
<path d="M5.22579 2.5442C5.44376 2.3186 5.80654 2.3186 6.03214 2.5442C6.25011 2.76217 6.25011 3.12495 6.03214 3.34242L1.94347 7.43108H15.4355C15.75 7.43159 16 7.68157 16 7.99609C16 8.3106 15.75 8.56871 15.4355 8.56871H1.94347L6.03214 12.6498C6.25011 12.8753 6.25011 13.2386 6.03214 13.4561C5.80654 13.6817 5.44325 13.6817 5.22579 13.4561L0.169196 8.39952C-0.0563984 8.18154 -0.0563984 7.81876 0.169196 7.60129L5.22579 2.5442Z" fill="#2B2B2B"/>
</g>
<defs>
<clipPath id="clip0_2032_414">
<rect width="16" height="16" rx="8" transform="matrix(-1 0 0 1 16 0)" fill="white"/>
</clipPath>
</defs>
</svg>
