<svg id="svg-whatsapp-fill" viewBox="0 0 30 30" fill="none" xmlns="http://www.w3.org/2000/svg">
<g clip-path="url(#clip0_2032_605)">
<path d="M15 30C23.2843 30 30 23.2843 30 15C30 6.71575 23.2843 0 15 0C6.71575 0 0 6.71575 0 15C0 23.2843 6.71575 30 15 30Z" fill="#91C75D"/>
<path fill-rule="evenodd" clip-rule="evenodd" d="M14.9961 21.1426H14.9936C13.9569 21.1422 12.9383 20.8822 12.0336 20.3887L8.75 21.25L9.62873 18.0403C9.08668 17.1009 8.80148 16.0354 8.80191 14.9437C8.8033 11.5285 11.5819 8.75 14.9961 8.75C16.6531 8.75072 18.2083 9.39577 19.3777 10.5666C20.5472 11.7374 21.1908 13.2936 21.1902 14.9486C21.1888 18.363 18.4113 21.1412 14.9961 21.1426ZM12.1857 19.2673L12.3737 19.3789C13.1642 19.848 14.0702 20.0962 14.9941 20.0965H14.9961C17.8337 20.0965 20.1432 17.787 20.1443 14.9482C20.1449 13.5726 19.6099 12.2791 18.6379 11.306C17.6659 10.3328 16.3733 9.79668 14.9981 9.7962C12.1584 9.7962 9.84887 12.1055 9.84775 14.944C9.84735 15.9168 10.1195 16.8642 10.6349 17.6839L10.7573 17.8787L10.2372 19.7785L12.1857 19.2673ZM17.9047 16.2822C18.0126 16.3343 18.0856 16.3696 18.1167 16.4215C18.1554 16.4861 18.1554 16.7959 18.0264 17.1575C17.8974 17.519 17.2791 17.849 16.9817 17.8934C16.7151 17.9332 16.3777 17.9499 16.0069 17.8321C15.7821 17.7608 15.4939 17.6655 15.1246 17.506C13.6737 16.8795 12.6931 15.4733 12.5078 15.2075C12.4948 15.1889 12.4858 15.1759 12.4807 15.1691L12.4795 15.1674C12.3976 15.0581 11.8487 14.3259 11.8487 13.568C11.8487 12.8552 12.1989 12.4815 12.3601 12.3095C12.3712 12.2977 12.3813 12.2868 12.3904 12.2769C12.5323 12.122 12.7 12.0832 12.8031 12.0832C12.9063 12.0832 13.0096 12.0842 13.0998 12.0887C13.1109 12.0893 13.1225 12.0892 13.1344 12.0891C13.2246 12.0886 13.3371 12.088 13.448 12.3544C13.4907 12.4569 13.5531 12.609 13.619 12.7693C13.7521 13.0935 13.8993 13.4517 13.9252 13.5036C13.9639 13.5811 13.9897 13.6714 13.9381 13.7747C13.9303 13.7902 13.9232 13.8048 13.9163 13.8188C13.8776 13.8979 13.8491 13.9561 13.7833 14.0329C13.7575 14.0631 13.7307 14.0956 13.704 14.1282C13.6507 14.193 13.5975 14.2579 13.5512 14.3041C13.4737 14.3812 13.393 14.465 13.4833 14.6199C13.5736 14.7749 13.8842 15.2817 14.3443 15.692C14.8389 16.1332 15.2688 16.3197 15.4866 16.4142C15.5292 16.4326 15.5636 16.4476 15.5889 16.4602C15.7436 16.5378 15.8339 16.5248 15.9242 16.4215C16.0145 16.3182 16.3111 15.9696 16.4142 15.8147C16.5174 15.6598 16.6206 15.6856 16.7625 15.7372C16.9044 15.7889 17.6653 16.1633 17.8201 16.2407C17.8503 16.2559 17.8785 16.2695 17.9047 16.2822Z" fill="#FDFDFD"/>
</g>
<defs>
<clipPath id="clip0_2032_605">
<rect width="30" height="30" fill="white"/>
</clipPath>
</defs>
</svg>
