<svg id="svg-whatsapp" viewBox="0 0 18 18" fill="none" xmlns="http://www.w3.org/2000/svg">
<path fill-rule="evenodd" clip-rule="evenodd" d="M8.99421 17.1902H8.9908C7.60856 17.1896 6.2504 16.8429 5.04409 16.1849L0.666016 17.3333L1.83766 13.0537C1.11492 11.8013 0.73465 10.3805 0.735229 8.92492C0.737081 4.37132 4.44195 0.666656 8.9941 0.666656C11.2034 0.667611 13.277 1.52768 14.8363 3.0888C16.3956 4.64979 17.2538 6.72474 17.2529 8.93146C17.2511 13.484 13.5477 17.1883 8.99421 17.1902ZM5.24698 14.6897L5.49762 14.8385C6.55156 15.4639 7.75966 15.7949 8.99144 15.7954H8.99421C12.7776 15.7954 15.857 12.716 15.8585 8.93094C15.8592 7.09679 15.1459 5.37213 13.8499 4.07462C12.5539 2.77711 10.8304 2.06223 8.99688 2.0616C5.21053 2.0616 2.13118 5.14071 2.12968 8.92538C2.12916 10.2224 2.49206 11.4856 3.17916 12.5785L3.34241 12.8382L2.64895 15.3713L5.24698 14.6897ZM12.8723 10.7095C13.0162 10.7791 13.1134 10.8261 13.1549 10.8954C13.2065 10.9814 13.2065 11.3945 13.0346 11.8767C12.8626 12.3587 12.0381 12.7986 11.6417 12.8579C11.2862 12.911 10.8362 12.9331 10.3419 12.7761C10.0422 12.681 9.65787 12.554 9.16551 12.3414C7.23096 11.5061 5.92355 9.631 5.67644 9.27665C5.65914 9.25183 5.64704 9.23447 5.64027 9.22544L5.63865 9.22324C5.52945 9.07752 4.79768 8.10119 4.79768 7.09071C4.79768 6.14019 5.26458 5.64198 5.47951 5.41264C5.49426 5.3969 5.50781 5.38243 5.5199 5.36924C5.70908 5.16264 5.93263 5.11096 6.07019 5.11096C6.20775 5.11096 6.34548 5.11224 6.46574 5.11826C6.48055 5.11901 6.496 5.11895 6.51192 5.11883C6.63217 5.11814 6.78211 5.11727 6.93003 5.47254C6.98692 5.60923 7.07019 5.81195 7.15798 6.02572C7.33553 6.45801 7.53177 6.93562 7.56626 7.00478C7.61788 7.10807 7.65226 7.2285 7.58345 7.36629C7.57315 7.38695 7.5636 7.40645 7.55445 7.42509C7.50278 7.53053 7.46481 7.60813 7.37708 7.71051C7.34265 7.75078 7.307 7.79419 7.27135 7.83759C7.20034 7.92405 7.1294 8.01051 7.06759 8.07208C6.96423 8.17497 6.85671 8.28661 6.97708 8.4932C7.09745 8.6998 7.51163 9.37556 8.12506 9.92272C8.78455 10.5109 9.3577 10.7595 9.64821 10.8856C9.70492 10.9102 9.75087 10.9301 9.78461 10.947C9.99086 11.0503 10.1112 11.033 10.2317 10.8954C10.352 10.7576 10.7475 10.2927 10.885 10.0862C11.0226 9.87967 11.1602 9.9141 11.3493 9.98291C11.5385 10.0518 12.5531 10.551 12.7594 10.6543C12.7997 10.6745 12.8374 10.6927 12.8723 10.7095Z" fill="currentColor"/>
</svg>