<svg width="29" height="63" viewBox="0 0 29 63" fill="none" xmlns="http://www.w3.org/2000/svg">
<path d="M8.46444 29.4476C8.59946 29.4476 8.73586 29.442 8.86881 29.4307C8.99804 29.4197 9.11485 29.3505 9.18574 29.2425C9.25704 29.1343 9.27483 28.9997 9.23387 28.877C9.14616 28.6132 9.06672 28.3482 8.98783 28.0844C8.8055 27.4754 8.61697 26.8462 8.33287 26.26C8.05607 25.6878 7.6859 25.1699 7.32759 24.6685C7.1752 24.455 7.02252 24.2414 6.87771 24.0245C6.86709 24.0085 6.85537 23.9932 6.84268 23.9789L5.31871 22.2578C5.31071 22.2486 5.30174 22.2396 5.29291 22.2312C4.20738 21.2028 2.91276 20.866 1.30313 20.6769C1.28658 20.6748 1.27017 20.674 1.25417 20.674C1.1495 20.674 1.04771 20.7129 0.96979 20.7842C0.879455 20.8665 0.829254 20.9842 0.83215 21.1062C0.932553 25.2379 4.784 29.4476 8.46444 29.4476Z" fill="#E8EBEE"/>
<path d="M10.7149 1.69106C10.6959 1.68844 10.6765 1.68719 10.6578 1.68719C10.5583 1.68719 10.4612 1.72223 10.3845 1.78774C8.74108 3.18414 7.65016 5.4792 7.46618 7.92653C7.30882 10.0184 7.85152 11.945 8.95513 13.2124C9.03526 13.3044 9.15138 13.3571 9.2733 13.3571C9.27413 13.3571 9.27537 13.3571 9.2762 13.3571C9.39949 13.3563 9.51589 13.3018 9.5952 13.2078C12.9431 9.25259 13.4184 5.43907 11.0069 1.87269C10.9403 1.77339 10.834 1.70747 10.7149 1.69106Z" fill="#E8EBEE"/>
<path d="M8.20651 22.2508C8.24581 22.2627 8.28636 22.2686 8.32677 22.2686C8.39766 22.2686 8.46855 22.2504 8.53185 22.2154C8.63101 22.1601 8.70411 22.0672 8.73404 21.9579C9.97776 17.4119 8.09976 12.8895 4.36526 11.4382C4.31589 11.4191 4.26403 11.4095 4.21245 11.4095C4.14501 11.4095 4.07743 11.4255 4.0162 11.458C3.90821 11.5146 3.83015 11.6155 3.80187 11.734C2.6933 16.3941 4.71005 21.2105 8.20651 22.2508Z" fill="#E8EBEE"/>
<path d="M8.63464 37.5332C8.77049 37.5332 8.9073 37.5272 9.04067 37.5158C9.163 37.5053 9.27444 37.442 9.34657 37.3423C9.41842 37.2427 9.44324 37.1169 9.41497 36.9975C8.98495 35.1956 8.53286 33.5901 7.38043 32.2425C5.89866 29.645 3.34459 29.0356 1.5514 28.8031C1.53319 28.8004 1.51513 28.7997 1.49734 28.7997C1.3939 28.7997 1.29308 28.8377 1.21502 28.9077C1.12345 28.9901 1.07242 29.1083 1.07531 29.2314C1.16992 33.3437 4.98538 37.5332 8.63464 37.5332Z" fill="#E8EBEE"/>
<path d="M28.7943 60.2465C28.782 60.1232 28.7158 60.0113 28.614 59.9409C26.8753 58.7426 24.7943 58.0831 22.7546 58.0831C20.3858 58.0831 18.3428 58.9735 17.1489 60.5258C17.0798 60.6161 17.0497 60.73 17.0657 60.8427C17.0817 60.9554 17.1425 61.0567 17.2345 61.1238C18.8184 62.281 20.7947 62.9182 22.8001 62.9182C25.104 62.9182 27.2466 62.0666 28.6786 60.5811C28.7642 60.4921 28.8068 60.3698 28.7943 60.2465Z" fill="#E8EBEE"/>
<path d="M22.1363 55.8485C22.1371 55.7211 22.0802 55.5994 21.9814 55.5189C20.0514 53.9425 17.762 53.0745 15.5353 53.0745C13.57 53.0745 11.8309 53.7349 10.5057 54.9842C10.4188 55.0661 10.3707 55.1813 10.3731 55.3007C10.3756 55.4201 10.4289 55.5328 10.5196 55.6109C12.2896 57.1368 14.4985 57.9771 16.7399 57.9771C18.6842 57.9771 20.4955 57.3541 21.9773 56.1755C22.0771 56.0966 22.1355 55.9762 22.1363 55.8485Z" fill="#E8EBEE"/>
<path d="M12.8387 45.4047C12.9538 45.3734 13.0511 45.2949 13.105 45.1886C13.1591 45.0823 13.1657 44.9577 13.1231 44.846C12.366 42.8715 11.1682 41.4702 9.46208 40.5629L9.40512 40.5254L8.55597 39.9669C7.64062 39.2843 6.59646 38.9659 5.27177 38.9659C4.59074 38.9659 3.89523 39.0479 3.18275 39.1394C3.05656 39.1554 2.94471 39.2277 2.87768 39.3357C2.81066 39.4437 2.79631 39.5762 2.83755 39.6961C4.01163 43.0803 7.55663 45.6323 11.0834 45.6323C11.6882 45.6319 12.2786 45.5553 12.8387 45.4047Z" fill="#E8EBEE"/>
<path d="M11.5769 13.5908C11.3608 13.9872 11.3001 14.4285 11.2413 14.8557C11.2164 15.0359 11.1932 15.2064 11.1586 15.3676C11.135 15.4786 11.1574 15.5942 11.2198 15.6884C11.2823 15.7829 11.3806 15.8478 11.4917 15.8694C11.6625 15.9023 11.8402 15.9529 12.029 16.0066C12.3834 16.1074 12.7497 16.2117 13.1238 16.2117C13.2322 16.2117 13.3373 16.2028 13.437 16.1846C15.9511 15.7347 18.0358 14.4058 19.6327 12.234C19.8602 11.9247 19.9974 11.5643 20.1298 11.2156C20.1898 11.0583 20.2517 10.8949 20.3223 10.7362C20.3696 10.6291 20.3704 10.507 20.3244 10.3995C20.2783 10.2919 20.1894 10.2083 20.0792 10.1686C19.4617 9.94709 18.7916 9.83441 18.0872 9.83441C15.4603 9.83441 12.783 11.3789 11.5769 13.5908Z" fill="#E8EBEE"/>
<path d="M15.4335 46.3749C15.49 46.3749 15.547 46.3635 15.6015 46.3397C17.8627 45.3565 18.5067 43.3345 18.7941 41.8998C19.1026 40.3607 19.0461 38.7603 18.9502 37.3979C18.8961 36.6303 18.4606 36.1141 17.866 36.1141C17.6022 36.1141 17.1976 36.2212 16.7692 36.7311C16.6528 36.8696 16.5338 37.0085 16.4143 37.148C15.7243 37.9525 15.0106 38.7843 14.6326 39.7666C13.9506 41.5375 13.3868 43.8695 15.093 46.2017C15.1743 46.3137 15.3022 46.3749 15.4335 46.3749Z" fill="#E8EBEE"/>
<path d="M10.9367 38.4235C10.9578 38.5341 11.0219 38.6316 11.1156 38.6941C11.1856 38.7414 11.268 38.7662 11.3514 38.7662C11.3788 38.7662 11.4063 38.7636 11.4337 38.7581C11.5932 38.7265 11.7654 38.707 11.9473 38.6864C12.3888 38.6366 12.845 38.5851 13.2388 38.3465C15.5996 36.9159 17.0784 34.7522 17.6346 31.9149C17.6957 31.6027 17.651 31.2942 17.5949 30.9033C17.5645 30.694 17.5303 30.4565 17.5033 30.167C17.4898 30.0238 17.405 29.8976 17.2775 29.8319C17.2168 29.8003 17.1501 29.7845 17.0833 29.7845C17.0108 29.7845 16.9381 29.8032 16.8736 29.8403L15.1904 30.805L14.0041 31.4849C13.9653 31.4946 13.9277 31.5099 13.8918 31.5306C12.1576 32.5473 11.0913 34.1704 10.6322 36.4931C10.538 36.9686 10.6723 37.4388 10.8022 37.8937C10.8543 38.0801 10.9045 38.2555 10.9367 38.4235Z" fill="#E8EBEE"/>
<path d="M20.9133 52.2737C21.4988 52.2737 21.8992 51.7521 22.1829 51.2975C23.2709 49.5537 23.573 47.5339 23.1332 44.9409C23.0155 44.2454 22.7428 43.5976 22.4547 42.9119C22.3234 42.6004 22.188 42.2783 22.0642 41.9433C22.0186 41.8205 21.9186 41.7256 21.7938 41.6868C21.7528 41.6741 21.7106 41.6678 21.6684 41.6678C21.5822 41.6678 21.4971 41.6938 21.4253 41.7452C19.9988 42.7508 18.9712 44.5926 18.6762 46.6718C18.409 48.5549 18.7922 50.3575 19.7013 51.4931C19.9929 51.8562 20.3938 52.2737 20.9133 52.2737Z" fill="#E8EBEE"/>
<path d="M25.9549 46.5082C25.8769 46.4432 25.7806 46.4099 25.6845 46.4099C25.6017 46.4099 25.5185 46.4339 25.4468 46.4833C24.2824 47.2775 23.5852 48.7847 23.4832 50.7275C23.3625 53.0245 24.1271 55.3491 25.3426 56.3808C25.7021 56.6861 26.0145 56.8282 26.3251 56.8282C26.9315 56.8282 27.2781 56.2729 27.392 56.09C28.3748 54.5137 28.3024 52.7701 28.1621 51.595C27.954 49.8523 27.5949 47.8786 25.9549 46.5082Z" fill="#E8EBEE"/>
<path d="M14.3028 8.4172C14.6156 8.47416 14.9383 8.5034 15.2616 8.5034C19.1251 8.5034 22.8854 4.4317 23.1395 1.22183C23.1575 0.993584 22.9905 0.79264 22.7631 0.768504C22.5204 0.743128 22.274 0.730164 22.0305 0.730164C18.3128 0.730164 14.9219 3.74846 13.9668 7.9076C13.941 8.01987 13.9621 8.13806 14.0254 8.23433C14.0897 8.33032 14.1897 8.39652 14.3028 8.4172Z" fill="#E8EBEE"/>
<path d="M11.1012 30.8706C11.1696 30.8748 11.2384 30.8765 11.3077 30.8765C13.2941 30.8765 15.4423 29.2386 16.6905 27.6152C17.8638 26.0896 18.352 24.5209 18.0304 23.3122C17.9841 23.1375 17.8317 23.0121 17.6514 22.9994C17.5 22.9888 17.3488 22.9838 17.2019 22.9838C15.7853 22.9838 14.5778 23.4759 13.6114 24.4462C11.3485 25.7616 10.0039 28.6199 10.7298 30.5946C10.788 30.7525 10.9336 30.8605 11.1012 30.8706Z" fill="#E8EBEE"/>
<path d="M11.365 23.5072H11.389C14.3022 23.5072 18.1004 20.2724 18.6461 17.3268C18.6795 17.1461 18.5925 16.965 18.4309 16.8781C17.9848 16.6384 17.459 16.5168 16.8685 16.5168C14.1934 16.5168 10.336 19.1903 9.90557 22.0301C9.8355 22.4909 9.90846 22.84 10.1284 23.0975C10.4323 23.4536 10.9239 23.5042 11.365 23.5072Z" fill="#E8EBEE"/>
<path d="M17.7333 50.9711C17.8409 50.9041 17.9126 50.7917 17.9287 50.6659C17.9447 50.5402 17.9029 50.4136 17.8156 50.3221C15.784 48.1895 13.1709 46.9666 10.6467 46.9666C9.10512 46.9666 7.67396 47.4291 6.50843 48.3038C6.41423 48.3744 6.35438 48.4812 6.3421 48.598C6.32997 48.7149 6.36707 48.8313 6.44471 48.92C8.2219 50.9461 10.8544 52.1557 13.4866 52.1557C15.0223 52.1548 16.4908 51.7456 17.7333 50.9711Z" fill="#E8EBEE"/>
</svg>
