<svg width="29" height="63" viewBox="0 0 29 63" fill="none" xmlns="http://www.w3.org/2000/svg">
<path d="M27.9242 20.4404C27.9078 20.4404 27.8913 20.4412 27.8753 20.4433C26.2656 20.6323 24.9709 20.9687 23.8855 21.9976C23.8767 22.006 23.8677 22.0148 23.8597 22.0242L23.8009 22.0904L22.3357 23.7453C22.323 23.7596 22.3112 23.7748 22.3007 23.7909C22.1559 24.0083 22.0032 24.2213 21.8507 24.4348C21.4928 24.9363 21.1223 25.454 20.8454 26.0264C20.5618 26.6125 20.3732 27.2423 20.1904 27.8507C20.1115 28.1146 20.0322 28.3795 19.9445 28.6434C19.9036 28.7661 19.9212 28.9007 19.9927 29.0088C20.064 29.1168 20.1808 29.1861 20.3096 29.1971C20.4425 29.2081 20.5784 29.2139 20.714 29.2139C24.394 29.2139 28.2457 25.0043 28.3462 20.873C28.3491 20.7505 28.2989 20.6333 28.2087 20.551C28.1301 20.4791 28.0289 20.4404 27.9242 20.4404Z" fill="#E8EBEE"/>
<path d="M19.9018 13.1233C19.9026 13.1233 19.904 13.1233 19.9047 13.1233C20.0268 13.1233 20.1427 13.0707 20.223 12.9787C21.3266 11.7114 21.8689 9.7848 21.7118 7.69275C21.5278 5.24542 20.4369 2.95091 18.7936 1.55396C18.7167 1.48858 18.6197 1.45355 18.5202 1.45355C18.5011 1.45355 18.4822 1.45479 18.4632 1.45728C18.3443 1.47369 18.2378 1.53961 18.1708 1.63919C15.7599 5.20529 16.2346 9.01909 19.5824 12.9743C19.6621 13.068 19.7789 13.1225 19.9018 13.1233Z" fill="#E8EBEE"/>
<path d="M20.4448 21.7241C20.4747 21.8339 20.5477 21.9263 20.647 21.9816C20.7103 22.0166 20.7808 22.0348 20.8521 22.0348C20.8925 22.0348 20.933 22.0289 20.9723 22.017C24.4688 20.9769 26.4857 16.1603 25.377 11.4998C25.3487 11.3813 25.2706 11.2804 25.1625 11.2238C25.1014 11.1918 25.0343 11.1753 24.9663 11.1753C24.9144 11.1753 24.863 11.1851 24.8136 11.204C21.079 12.6553 19.2011 17.1781 20.4448 21.7241Z" fill="#E8EBEE"/>
<path d="M27.6813 28.566C27.6631 28.566 27.6449 28.5672 27.6272 28.5693C23.8893 29.0534 22.5094 30.7605 21.7982 32.0088C20.6456 33.3564 20.1936 34.9617 19.7637 36.7637C19.7348 36.8832 19.7598 37.0089 19.8319 37.1087C19.9038 37.2082 20.0155 37.2715 20.138 37.282C20.2713 37.2935 20.408 37.2994 20.5439 37.2994C24.1935 37.2994 28.0087 33.1095 28.1036 28.9978C28.1065 28.8745 28.0553 28.7564 27.9638 28.6741C27.8856 28.604 27.7847 28.566 27.6813 28.566Z" fill="#E8EBEE"/>
<path d="M6.42394 57.8495C4.38389 57.8495 2.30287 58.5094 0.564295 59.7072C0.462099 59.7777 0.396312 59.889 0.384037 60.0128C0.371349 60.1361 0.413966 60.2587 0.500026 60.3478C1.93201 61.8331 4.07468 62.6851 6.37843 62.6851C8.38387 62.6851 10.3602 62.0478 11.944 60.8905C12.036 60.8235 12.0967 60.7221 12.1129 60.6095C12.1289 60.4969 12.0989 60.3825 12.0297 60.2925C10.8359 58.7399 8.7928 57.8495 6.42394 57.8495Z" fill="#E8EBEE"/>
<path d="M13.6432 52.8412C11.4159 52.8412 9.12633 53.7094 7.19688 55.2856C7.09814 55.3662 7.04117 55.4878 7.042 55.6152C7.04283 55.7427 7.10158 55.8635 7.20102 55.9428C8.68279 57.1214 10.494 57.7442 12.4384 57.7442C14.6798 57.7442 16.8887 56.9041 18.6587 55.378C18.7489 55.3 18.8021 55.1873 18.8052 55.0678C18.8082 54.9484 18.7596 54.8332 18.6726 54.7513C17.3663 53.5193 15.5804 52.8412 13.6432 52.8412Z" fill="#E8EBEE"/>
<path d="M25.9961 38.9053C25.2838 38.8141 24.5883 38.7318 23.9074 38.7318C22.5828 38.7318 21.5385 39.05 20.6233 39.7328L19.7743 40.2912L19.7173 40.3287C18.0115 41.2361 16.8136 42.6372 16.0562 44.6119C16.0136 44.7233 16.0199 44.8478 16.0744 44.9545C16.1289 45.0612 16.2254 45.1394 16.3407 45.1706C16.9008 45.3212 17.4912 45.3976 18.0956 45.3976C21.6224 45.3976 25.1674 42.8456 26.3415 39.4614C26.3832 39.3411 26.3685 39.2091 26.3013 39.101C26.234 38.9933 26.1223 38.9217 25.9961 38.9053Z" fill="#E8EBEE"/>
<path d="M9.04829 10.9824C9.18083 11.331 9.31806 11.691 9.54534 12.0007C11.1428 14.1725 13.2272 15.5019 15.7416 15.9514C15.8412 15.969 15.9462 15.9784 16.0549 15.9784C16.4287 15.9784 16.7951 15.8741 17.1496 15.7733C17.3378 15.7197 17.5159 15.669 17.687 15.6361C17.7984 15.6146 17.8963 15.5492 17.9588 15.4551C18.0211 15.3605 18.0431 15.2449 18.0199 15.1343C17.9857 14.9731 17.9621 14.8026 17.9371 14.6224C17.8784 14.1953 17.8177 13.7535 17.6016 13.3576C16.3954 11.1457 13.7186 9.60114 11.0914 9.60114C10.3866 9.60114 9.7165 9.7134 9.09946 9.93531C8.9894 9.97503 8.90031 10.0586 8.85439 10.1662C8.80832 10.2738 8.80887 10.3958 8.85659 10.503C8.92638 10.6616 8.9883 10.825 9.04829 10.9824Z" fill="#E8EBEE"/>
<path d="M13.5764 46.1061C13.6309 46.1298 13.6882 46.1413 13.7444 46.1413C13.8761 46.1413 14.0039 46.0796 14.0854 45.9682C15.7916 43.6356 15.2278 41.304 14.5458 39.5331C14.1678 38.5506 13.4541 37.7188 12.7641 36.9145C12.6446 36.7748 12.5253 36.6363 12.4092 36.4976C11.9808 35.9879 11.5766 35.8806 11.3123 35.8806C10.7181 35.8806 10.2821 36.3966 10.2282 37.1644C10.1325 38.5268 10.0759 40.1267 10.3844 41.6663C10.671 43.1013 11.3151 45.123 13.5764 46.1061Z" fill="#E8EBEE"/>
<path d="M17.2312 38.4527C17.4129 38.4733 17.5847 38.4923 17.7448 38.5244C17.7722 38.5299 17.7995 38.5326 17.8271 38.5326C17.9105 38.5326 17.9925 38.5076 18.0631 38.4604C18.1563 38.3975 18.2209 38.3 18.242 38.1898C18.274 38.0223 18.3243 37.8468 18.3774 37.6607C18.5073 37.2057 18.6416 36.7356 18.5474 36.26C18.0883 33.9372 17.0222 32.3136 15.2877 31.2975C15.2518 31.2764 15.2139 31.2612 15.1755 31.2518L13.989 30.5719L12.306 29.6072C12.2411 29.5701 12.169 29.5515 12.0963 29.5515C12.0297 29.5515 11.9629 29.567 11.9022 29.5988C11.7747 29.6647 11.6894 29.7913 11.6763 29.9339C11.6494 30.2238 11.6148 30.461 11.5847 30.6704C11.5282 31.0611 11.4839 31.3696 11.5452 31.6818C12.1008 34.5192 13.5801 36.6828 15.9404 38.1134C16.3335 38.3513 16.7897 38.4029 17.2312 38.4527Z" fill="#E8EBEE"/>
<path d="M8.26404 52.0398C8.78412 52.0398 9.18449 51.6225 9.47563 51.2591C10.3848 50.1235 10.7679 48.3213 10.5008 46.4378C10.2058 44.3586 9.17815 42.5168 7.75168 41.5111C7.67955 41.4605 7.59473 41.4338 7.50853 41.4338C7.46674 41.4338 7.42468 41.4401 7.3833 41.4528C7.25835 41.4916 7.15836 41.5866 7.11271 41.7093C6.98873 42.0445 6.85316 42.3665 6.72241 42.6779C6.43417 43.3636 6.1615 44.011 6.04372 44.7069C5.60432 47.2995 5.90663 49.3191 6.99424 51.0635C7.27835 51.5182 7.67872 52.0398 8.26404 52.0398Z" fill="#E8EBEE"/>
<path d="M3.7319 46.2496C3.65977 46.2007 3.57702 46.1763 3.49427 46.1763C3.39773 46.1763 3.30147 46.2091 3.22382 46.2746C1.58372 47.6449 1.22459 49.6187 1.01702 51.3616C0.876761 52.5367 0.804356 54.2804 1.78756 55.8566C1.90162 56.0394 2.24806 56.5949 2.85448 56.5949C3.16507 56.5949 3.47745 56.4527 3.83686 56.1475C5.05231 55.116 5.81706 52.7912 5.69625 50.4942C5.5935 48.5511 4.89619 47.0439 3.7319 46.2496Z" fill="#E8EBEE"/>
<path d="M14.8742 8.18347C14.9876 8.16278 15.0877 8.09658 15.151 8.00032C15.2143 7.90405 15.2354 7.78586 15.2098 7.67359C14.2551 3.515 10.8637 0.496155 7.14648 0.496155C6.9025 0.496155 6.65604 0.509257 6.41386 0.534495C6.18644 0.558631 6.01928 0.759437 6.03749 0.987826C6.29194 4.19728 10.0517 8.26939 13.9153 8.26939C14.2385 8.26967 14.5614 8.24043 14.8742 8.18347Z" fill="#E8EBEE"/>
<path d="M15.5655 24.2124C14.5982 23.2417 13.3907 22.7501 11.975 22.7501C11.8285 22.7501 11.6771 22.7556 11.5255 22.7656C11.3453 22.7779 11.1929 22.9036 11.1465 23.0784C10.8249 24.2876 11.3137 25.8558 12.4864 27.3814C13.7348 29.0048 15.8829 30.6427 17.8694 30.6427C17.9385 30.6427 18.0073 30.6407 18.0757 30.6368C18.2433 30.6267 18.3889 30.5187 18.4466 30.3612C19.173 28.3866 17.8285 25.5278 15.5655 24.2124Z" fill="#E8EBEE"/>
<path d="M19.2739 21.796C18.8434 18.9562 14.9866 16.2827 12.3114 16.2827H12.311C11.7206 16.2827 11.1947 16.4042 10.7487 16.644C10.5871 16.7309 10.5001 16.912 10.5334 17.0925C11.079 20.0383 14.8768 23.2731 17.7904 23.2731H17.8146C18.2551 23.2705 18.7469 23.2194 19.0516 22.8628C19.271 22.6063 19.3435 22.2572 19.2739 21.796Z" fill="#E8EBEE"/>
<path d="M18.5319 46.7324C16.0073 46.7324 13.3941 47.9555 11.3626 50.0879C11.2752 50.1801 11.2334 50.3061 11.2495 50.4319C11.2656 50.5577 11.3374 50.6699 11.4449 50.7371C12.687 51.5119 14.1555 51.9212 15.6918 51.9212C18.3239 51.9212 20.9566 50.7117 22.7338 48.6856C22.8113 48.5973 22.8485 48.4805 22.8363 48.3636C22.824 48.2466 22.7637 48.1404 22.6699 48.0694C21.5043 47.1951 20.0731 46.7324 18.5319 46.7324Z" fill="#E8EBEE"/>
</svg>
